<?xml version="1.0" encoding="UTF-8" standalone="no"?>
<svg
   width="132.09358"
   height="105.52824"
   viewBox="0 0 132.09359 105.52823"
   version="1.1"
   id="svg1"
   sodipodi:docname="coreboot.svg"
   inkscape:version="1.3.2 (091e20ef0f, 2023-11-25)"
   xmlns:inkscape="http://www.inkscape.org/namespaces/inkscape"
   xmlns:sodipodi="http://sodipodi.sourceforge.net/DTD/sodipodi-0.dtd"
   xmlns="http://www.w3.org/2000/svg"
   xmlns:svg="http://www.w3.org/2000/svg">
  <defs
     id="defs1" />
  <sodipodi:namedview
     id="namedview1"
     pagecolor="#ffffff"
     bordercolor="#999999"
     borderopacity="1"
     inkscape:showpageshadow="2"
     inkscape:pageopacity="0"
     inkscape:pagecheckerboard="0"
     inkscape:deskcolor="#d1d1d1"
     inkscape:zoom="4.0499254"
     inkscape:cx="97.038824"
     inkscape:cy="79.631096"
     inkscape:window-width="1920"
     inkscape:window-height="1011"
     inkscape:window-x="0"
     inkscape:window-y="0"
     inkscape:window-maximized="1"
     inkscape:current-layer="svg1" />
  <path
     d="m 116.17759,40.725001 c -10.576,-6.285 -13.657,-4.1 -23.152994,-11.671 C 78.199596,17.237001 60.246596,3.794 42.619596,0 c 0,0 4.307,3.492 12.283,9.8220006 0.559,0.4650004 0.705,0.6840004 0.595,0.8670004 -0.169,0.287 -0.928,-0.046 -0.928,-0.046 C 48.406596,8.298 41.446596,6.968 36.730596,7.273 c -1.561,0.1 -2.061,0.352 -2.283,0.797 -0.104,0.209 -0.119,0.7720002 0.405,1.4690006 2.061,2.7250004 7.024,8.0640004 15.281,13.1320004 8.486,5.206 23.472,12.592 36.726,18.489 5.932,2.638 10.207,6.164 8.846,10.232 -1.52,4.533 -7.387,5.15 -12.074,3.275 -3.808,-1.523 -7.367,-6.297 -13.148,-12.701 -10.016,-11.098 -14.769,-15.525 -31.39,-12.141 -8.332,1.697 -16.194,8.516 -22.482,15.713 -4.196,5.292 -6.213,9.694 -6.8209996,15.002 0,0 -1.1460003,-2.105 -0.008,-7.49 1.9889996,-9.407 -2.3410003,-13.447 -2.3410003,-13.447 -21.9250001,31.092 9.2609999,59.202001 33.3009999,32.281 0,0 -7.865,17.467 -7.21,22.906 -3.355,1.1 -4.845,4.186001 0.176,7.910009 5.486,4.068 18.961,3.716 29.59,-0.852 19.845,-8.529009 32.213,-24.423009 38.343994,-34.516009 1.432,-2.36 2.947,-3.508 3.996,-3.883 1.591,-0.574 12.537,0.086 17.662,-2.824 0.713,0.347 1.621,0.533 2.817,0.442 3.714,-0.282 5.976,-4.727 5.976,-4.727 0,0 -4.687,-8.941 -15.916,-15.615 z m -41.141994,44.652 c -10.166,7.24 -21.192,9.26 -28.008,6.262 10.782,-7.818 30.624,-27.373 30.624,-27.373 0,0 -3.302,-8.318 -9.257,-3.225 -5.76,4.925 -11.081,11.078 -13.184,13.043 -1.301,1.213 -3.508,3.506 -4.812,2.52 -1.587,-1.199 3.137,-11.825 6.749,-20.631 4.928,-12.01 -0.742,-15.762 -7.379,-15.429 -5.947,0.299 -14.071,3.903 -19.891,7.462 -1.648,1.009 -2.773,1.629 -3.189,1.244 -0.364,-0.339 0.021,-0.977 1.102,-1.89 15.471,-13.108 37.549,-12.767 39.523,-3.175 1.571,7.65 -14.771,26.914 -13.697,27.223 0.104,0.029 0.338,-0.088 0.68,-0.322 5.364,-7.021 15.521,-17.801 19.331,-17.384 6.827,0.746 9.183,9.794 9.183,9.794 l -22.761,20.538 c 4.701,1.277 9.842,1.738 14.986,1.343 z"
     id="path1"
     sodipodi:nodetypes="ccccccccccccccccccccccccccccccccccccccccccccccc" />
</svg>
